inDegrees=yes
name=ik_S42_A03_T01
DataType=double
version=3
OpenSimVersion=4.3-2021-08-27-4bc7ad9
endheader
time	pelvis_tilt	pelvis_list	pelvis_rotation	pelvis_tx	pelvis_ty	pelvis_tz	hip_flexion_r	hip_adduction_r	hip_rotation_r	knee_angle_r	knee_angle_r_beta	ankle_angle_r	subtalar_angle_r	mtp_angle_r	hip_flexion_l	hip_adduction_l	hip_rotation_l	knee_angle_l	knee_angle_l_beta	ankle_angle_l	subtalar_angle_l	mtp_angle_l	lumbar_extension	lumbar_bending	lumbar_rotation	arm_flex_r	arm_add_r	arm_rot_r	elbow_flex_r	pro_sup_r	wrist_flex_r	wrist_dev_r	arm_flex_l	arm_add_l	arm_rot_l	elbow_flex_l	pro_sup_l	wrist_flex_l	wrist_dev_l
11.01999999999985	2.411312595718544	-0.7389473897925438	97.39938405404354	0	0.9399999999999999	0	-5.596811388951592	5.085825067412297	-2.7293085139756	16.23117807041984	0.2832874988063262	0	0	0	20.02983222608509	4.426694975876386	-0.6252131079353738	2.763567241399101	0.04823334746267125	0	0	0	0	0	0	28.2025121084428	-28.2025121084428	4.074130905289707	72.25135046928051	85.92586932431068	0	0	28.2025121084428	-28.2025121084428	4.074130905289707	72.25135046928051	85.92586932413755	0	0
11.03999999999985	2.061339480815441	-1.029912882844821	97.33733696447102	0	0.9399999999999999	0	-4.368054297533189	4.120593614540814	-2.930961604839436	18.32468639985649	0.3198261120729219	0	0	0	19.21786710498187	4.783825079089889	-0.5241680947834729	2.248104512141651	0.03923682566581266	0	0	0	0	0	0	28.20854593238952	-28.20854593238953	4.074787601961642	72.26055402468387	85.92521262767359	0	0	28.20854593238952	-28.20854593238953	4.074787601961642	72.26055402468387	85.9252126275006	0	0
11.05999999999985	1.674039582173652	-1.339373206660225	97.24930074944874	0	0.9399999999999999	0	-3.003214308520352	2.66816926203875	-3.577257218700569	22.9250973780996	0.4001184305881574	0	0	0	18.50831530767101	5.2269298763892	-0.2861878660960815	2.170335776799768	0.03787950517898472	0	0	0	0	0	0	28.21809886090807	-28.21809886090807	4.075829312605883	72.27515462694745	85.92417091708468	0	0	28.21809886090807	-28.21809886090807	4.075829312605883	72.27515462694745	85.92417091691188	0	0
11.07999999999985	1.23579579792423	-1.748134476204111	97.28592796647658	0	0.9399999999999999	0	-1.377144385856826	1.360232288842394	-4.827835847258783	25.45820288946709	0.4443294620619347	0	0	0	18.05347583170997	5.805410890960769	0.539553937707922	2.236613757930916	0.03903627417129791	0	0	0	0	0	0	28.22706263876283	-28.22706263876283	4.076807720195582	72.28886820217342	85.92319250954696	0	0	28.22706263876283	-28.22706263876283	4.076807720195582	72.28886820217342	85.92319250937439	0	0
11.09999999999985	1.245301885022751	-1.748157456619743	97.28110814518692	0	0.9399999999999999	0	0.1369443937256537	0.5334258720404543	-6.088963531500659	29.37915301415634	0.5127629515442444	0	0	0	17.30690328543435	5.85149183220802	1.46019282651214	2.325317439749234	0.04058444547766901	0	0	0	0	0	0	28.23814024113551	-28.23814024113551	4.078015874470939	72.30580065097297	85.92198435533584	0	0	28.23814024113551	-28.23814024113551	4.078015874470939	72.30580065097297	85.92198435516343	0	0
11.11999999999985	0.7738445093912425	-2.029486093189326	97.31783001855251	0	0.9399999999999999	0	2.058004630305516	-0.4236078532761157	-6.128612774155161	33.04317303448716	0.5767121647580068	0	0	0	16.75672682971733	6.425569328562176	2.072708810900972	2.153185414745902	0.03758017489323565	0	0	0	0	0	0	28.24590819866606	-28.24590819866606	4.078859276262061	72.31761780741664	85.92114095358953	0	0	28.24590819866606	-28.24590819866606	4.078859276262061	72.31761780741664	85.92114095341728	0	0
11.13999999999985	-0.4322366798810828	-2.49124523009485	97.00558711405623	0	0.9399999999999999	0	4.156409753123952	-1.726481267395198	-4.78207603496186	36.14514562544488	0.6308517997768381	0	0	0	16.39881576425195	7.651580962651659	1.765242729200917	1.434327264067826	0.02503373330910571	0	0	0	0	0	0	28.25313826826142	-28.25313826826142	4.079643989432632	72.32861221547259	85.92035624046059	0	0	28.25313826826142	-28.25313826826142	4.079643989432632	72.32861221547259	85.92035624028841	0	0
11.15999999999985	-0.4357446355656742	-2.49453294550058	97.01678907644791	0	0.9399999999999999	0	5.74791560032843	-1.863730808580323	-4.997940964045709	37.93131068427471	0.662026261037497	0	0	0	15.72117413017777	7.753817815761713	1.760211037137314	1.597967142276979	0.02788978797141795	0	0	0	0	0	0	28.33296667164721	-28.33296667164721	4.087046692355026	72.431375967721	85.91295353792148	0	0	28.33296667164721	-28.33296667164721	4.087046692355026	72.431375967721	85.91295353775078	0	0
11.17999999999985	-0.8851992065028929	-2.660382944810082	96.8139905396701	0	0.9399999999999999	0	9.658254761585237	-2.352068899093721	-7.527744261634592	40.59018749277426	0.7084324157507329	0	0	0	15.87862526620239	8.153692063423827	1.455184826283026	1.590987206208063	0.02776796510543666	0	0	0	0	0	0	28.40461099019588	-28.40461099019588	4.093748994014248	72.52447607018239	85.90625123661005	0	0	28.40461099019588	-28.40461099019588	4.093748994014248	72.52447607018239	85.90625123644057	0	0
11.19999999999985	-1.648583299496128	-3.179616792150344	96.64777872174361	0	0.9399999999999999	0	12.40230613804852	-2.980065726703928	-6.085415993740284	42.19496400590938	0.7364410496636148	0	0	0	16.35181693042965	8.979398299709132	1.101290705171307	2.983570362839852	0.0520731262964773	0	0	0	0	0	0	28.54117517153186	-28.54117517153187	4.106418537008984	72.70036974156456	85.89358169427162	0	0	28.54117517153186	-28.54117517153187	4.106418537008984	72.70036974156456	85.89358169410458	0	0
11.21999999999985	-2.021051596457986	-3.438720273543332	96.51257637326248	0	0.9399999999999999	0	14.92328191996207	-3.24099105831354	-5.261863509626593	41.69477194854293	0.7277110513702458	0	0	0	15.494109553022	9.420027804910662	0.9969407328810032	2.772028619770425	0.0483810263745079	0	0	0	0	0	0	28.60178757836211	-28.60178757836211	4.111985753992993	72.77760829460462	85.88801447757542	0	0	28.60178757836211	-28.60178757836211	4.111985753992993	72.77760829460462	85.88801447740946	0	0
11.23999999999985	-2.176316914025898	-3.558657974301179	96.48646310554341	0	0.9399999999999999	0	17.32431056093509	-2.697079522514318	-3.911081793887538	40.22326055370041	0.7020283325496295	0	0	0	15.00629527294483	9.666174234059593	1.137788114459376	2.873552844865775	0.0501529583729576	0	0	0	0	0	0	28.65937478169134	-28.65937478169135	4.117305677797177	72.85144464244237	85.88269455404654	0	0	28.65937478169134	-28.65937478169135	4.117305677797177	72.85144464244237	85.88269455388162	0	0
11.25999999999985	-2.425785438140188	-3.693059595715277	96.53795978764198	0	0.9399999999999999	0	19.61996147459751	-2.504758914092724	-2.59081303041288	42.40114066995387	0.7400395112919693	0	0	0	15.1307165893067	9.955920520869814	1.130851701443745	3.574117731462149	0.06238012226792502	0	0	0	0	0	0	28.7437780227405	-28.7437780227405	4.125058443810972	72.95901342737109	85.87494178843366	0	0	28.7437780227405	-28.7437780227405	4.125058443810972	72.95901342737109	85.87494178827021	0	0
11.27999999999985	-2.625345215579109	-3.864502861207648	96.69641430550162	0	0.9399999999999999	0	19.90915051780792	-2.007854942120265	-2.454779835035061	35.79511875155402	0.6247426783569797	0	0	0	13.32493995785836	10.55917719303874	2.446462137674171	2.266490967917193	0.03955772985686818	0	0	0	0	0	0	28.75792037433953	-28.75792037433954	4.126554615546428	72.97992411432531	85.8734456167772	0	0	28.75792037433953	-28.75792037433954	4.126554615546428	72.97992411432531	85.87344561661403	0	0
11.29999999999985	-2.914100658728707	-4.057898042508698	97.06803178765466	0	0.9399999999999999	0	22.01323790534919	-1.427662008627565	-1.392362813472329	33.64495770587958	0.5872152886618366	0	0	0	12.8502640269096	10.96668406362103	2.701223801643487	2.385937001020529	0.04164245641296754	0	0	0	0	0	0	28.79801007253815	-28.79801007253816	4.130269579157231	73.03149191078575	85.86973065335877	0	0	28.79801007253815	-28.79801007253816	4.130269579157231	73.03149191078575	85.86973065319633	0	0
11.31999999999985	-3.011796669083699	-4.064619782790849	97.18820619374034	0	0.9399999999999999	0	22.11490015302458	-1.107026000603046	-1.233046727777675	29.77004774675754	0.5195853516568382	0	0	0	12.29694325768263	11.08227879126199	2.377422284508989	3.320325728661736	0.05795061620382715	0	0	0	0	0	0	28.80583428594447	-28.80583428594448	4.131100792374927	73.04311037158692	85.86889944018498	0	0	28.80583428594447	-28.80583428594448	4.131100792374927	73.04311037158692	85.86889944002272	0	0
11.33999999999985	-3.110064671009581	-4.151800391498966	97.50745428971445	0	0.9399999999999999	0	24.70639072866527	0.09200178509578882	-0.5893206447087916	29.90603604963821	0.5219587952863052	0	0	0	11.83931127801737	11.25298761314422	2.333694243407206	3.705703986639922	0.0646767356711466	0	0	0	0	0	0	28.85928655660211	-28.85928655660212	4.135969985945567	73.11063656306965	85.86403024686574	0	0	28.85928655660211	-28.85928655660212	4.135969985945567	73.11063656306965	85.86403024670437	0	0
11.35999999999985	-3.10269233922555	-4.185664098582504	97.9191230338762	0	0.9399999999999999	0	25.93018509028805	1.232705015018464	0.401508586764188	24.73769495584884	0.4317542263335555	0	0	0	11.31720931521411	11.33003070585491	2.419003861848066	4.040233340339844	0.07051537433777891	0	0	0	0	0	0	28.89276915345232	-28.89276915345233	4.139112095077768	73.15427923366165	85.86088813789654	0	0	28.89276915345232	-28.89276915345233	4.139112095077768	73.15427923366165	85.86088813773574	0	0
